<mxfile host="app.diagrams.net" modified="2023-04-11T09:28:43.440Z" agent="Mozilla/5.0 (Windows NT 10.0; Win64; x64) AppleWebKit/537.36 (KHTML, like Gecko) Chrome/111.0.0.0 Safari/537.36" etag="Si4PuJSHt_td7KeRGWaF" version="21.1.5" type="device">
  <diagram name="Page-1" id="EqDKQx5rNyjf7sgT-Yt_">
    <mxGraphModel dx="1050" dy="587" grid="1" gridSize="10" guides="1" tooltips="1" connect="1" arrows="1" fold="1" page="1" pageScale="1" pageWidth="850" pageHeight="1100" math="0" shadow="0">
      <root>
        <mxCell id="0" />
        <mxCell id="1" parent="0" />
        <mxCell id="J9BMQi96JJOEuLld7evi-1" value="AttackingTool" style="swimlane;fontStyle=1;align=center;verticalAlign=top;childLayout=stackLayout;horizontal=1;startSize=26;horizontalStack=0;resizeParent=1;resizeParentMax=0;resizeLast=0;collapsible=1;marginBottom=0;whiteSpace=wrap;html=1;" vertex="1" parent="1">
          <mxGeometry x="260" y="10" width="250" height="230" as="geometry" />
        </mxCell>
        <mxCell id="J9BMQi96JJOEuLld7evi-2" value="- name: String&lt;br&gt;- action: String&lt;br&gt;- unit: Arraylist(People)&lt;br&gt;- engineerNum: int" style="text;strokeColor=none;fillColor=none;align=left;verticalAlign=top;spacingLeft=4;spacingRight=4;overflow=hidden;rotatable=0;points=[[0,0.5],[1,0.5]];portConstraint=eastwest;whiteSpace=wrap;html=1;" vertex="1" parent="J9BMQi96JJOEuLld7evi-1">
          <mxGeometry y="26" width="250" height="94" as="geometry" />
        </mxCell>
        <mxCell id="J9BMQi96JJOEuLld7evi-3" value="" style="line;strokeWidth=1;fillColor=none;align=left;verticalAlign=middle;spacingTop=-1;spacingLeft=3;spacingRight=3;rotatable=0;labelPosition=right;points=[];portConstraint=eastwest;strokeColor=inherit;" vertex="1" parent="J9BMQi96JJOEuLld7evi-1">
          <mxGeometry y="120" width="250" height="8" as="geometry" />
        </mxCell>
        <mxCell id="J9BMQi96JJOEuLld7evi-4" value="+ AttackingTool(name: String,action: String)&lt;br&gt;+ addPerson(person: People):void&lt;br&gt;+ action():Void&lt;br&gt;+ getName(): String&lt;br&gt;+ getAction():void&lt;br&gt;+ getEngineerNum():int" style="text;strokeColor=none;fillColor=none;align=left;verticalAlign=top;spacingLeft=4;spacingRight=4;overflow=hidden;rotatable=0;points=[[0,0.5],[1,0.5]];portConstraint=eastwest;whiteSpace=wrap;html=1;" vertex="1" parent="J9BMQi96JJOEuLld7evi-1">
          <mxGeometry y="128" width="250" height="102" as="geometry" />
        </mxCell>
      </root>
    </mxGraphModel>
  </diagram>
</mxfile>
